<?xml version="1.0" standalone="no"?>
<!DOCTYPE svg PUBLIC "-//W3C//DTD SVG 20010904//EN"
 "http://www.w3.org/TR/2001/REC-SVG-20010904/DTD/svg10.dtd">
<svg version="1.0" xmlns="http://www.w3.org/2000/svg"
 width="881.000000pt" height="259.000000pt" viewBox="0 0 881.000000 259.000000"
 preserveAspectRatio="xMidYMid meet">

<g transform="translate(0.000000,259.000000) scale(0.100000,-0.100000)"
fill="#000000" stroke="none">
<path d="M1340 2580 c-175 -24 -310 -111 -378 -245 -27 -54 -52 -141 -52 -181
l0 -32 -297 -4 c-283 -4 -301 -5 -356 -27 -111 -44 -211 -165 -236 -285 -3
-17 -6 -357 -6 -756 0 -684 1 -728 19 -780 38 -111 104 -192 198 -242 l43 -23
1299 -3 1299 -2 53 24 c64 29 134 92 169 151 56 96 56 97 53 901 l-3 739 -23
57 c-27 67 -105 157 -166 193 -81 47 -144 55 -413 55 l-248 0 -12 75 c-16 98
-53 171 -122 240 -73 73 -168 120 -285 140 -94 16 -431 19 -536 5z m558 -244
c89 -29 161 -112 162 -188 l0 -28 -460 0 -460 0 0 28 c0 41 40 112 83 146 69
55 142 66 397 62 176 -2 236 -7 278 -20z m949 -478 c77 -51 73 -10 73 -802 0
-683 -1 -708 -20 -745 -11 -22 -36 -50 -57 -62 l-38 -24 -1200 -3 c-875 -2
-1211 0 -1242 9 -49 13 -100 62 -113 110 -6 21 -10 301 -10 722 0 562 3 694
14 720 17 41 65 85 102 97 16 5 571 8 1240 7 l1210 -2 41 -27z"/>
<path d="M460 1050 l0 -630 90 0 90 0 0 90 0 90 955 0 955 0 0 -90 0 -90 95 0
95 0 0 180 0 180 -1050 0 -1050 0 0 393 c0 353 -2 395 -18 427 -23 46 -75 80
-123 80 l-39 0 0 -630z"/>
<path d="M764 1520 c-51 -20 -54 -36 -54 -307 l0 -253 204 0 c113 0 216 4 230
10 48 18 61 54 61 170 -1 92 -4 112 -27 162 -56 121 -156 196 -290 218 -74 12
-96 12 -124 0z"/>
<path d="M1349 1155 c-46 -25 -59 -70 -59 -199 l0 -116 725 0 c399 0 725 1
725 3 0 2 -7 28 -16 58 -33 111 -99 189 -203 238 l-56 26 -545 2 c-460 2 -549
0 -571 -12z"/>
<path d="M5080 1155 l0 -456 78 3 77 3 2 133 c1 127 9 162 34 162 5 0 21 -24
35 -52 14 -29 51 -97 81 -150 l55 -98 89 0 c49 0 89 4 89 8 0 4 -27 52 -60
106 -33 54 -60 100 -60 101 0 1 -22 39 -50 85 l-49 82 82 107 c45 58 90 115
99 125 10 11 18 23 18 28 0 4 -40 8 -88 8 l-89 0 -84 -127 c-46 -69 -88 -128
-94 -130 -7 -2 -9 87 -7 257 l3 260 -81 0 -80 0 0 -455z"/>
<path d="M8270 1155 l0 -455 80 0 80 0 0 133 c0 118 2 136 19 151 18 16 22 11
101 -134 l83 -150 88 0 c49 0 89 4 89 9 0 5 -40 76 -88 158 -49 81 -97 164
-108 183 l-20 35 103 130 103 130 -82 3 c-45 2 -87 1 -95 -2 -7 -3 -52 -65
-101 -138 l-87 -133 -3 268 -2 267 -80 0 -80 0 0 -455z"/>
<path d="M3540 1567 c0 -38 -30 -695 -36 -774 l-6 -93 75 0 75 0 6 31 c3 17 7
97 7 178 2 223 13 422 22 386 22 -87 44 -159 109 -348 l71 -208 59 3 60 3 84
240 c45 132 89 260 95 285 l13 45 7 -80 c4 -44 11 -182 14 -307 l7 -228 72 0
c40 0 75 2 77 4 2 3 -3 172 -13 378 -9 205 -17 401 -17 436 l-1 62 -103 0
-103 0 -38 -132 c-20 -73 -62 -212 -92 -308 -31 -96 -57 -179 -58 -185 -2 -5
-9 10 -15 35 -7 25 -41 146 -76 270 -35 124 -69 246 -76 273 l-11 47 -104 0
c-80 0 -104 -3 -104 -13z"/>
<path d="M6290 1140 l0 -440 173 0 c250 0 324 28 381 142 55 110 16 260 -80
305 l-33 16 44 39 c47 42 67 85 67 151 1 73 -19 123 -64 162 -64 54 -115 65
-315 65 l-173 0 0 -440z m301 310 c20 -6 48 -21 63 -35 22 -20 26 -33 26 -77
0 -93 -46 -128 -170 -128 l-70 0 0 118 c0 65 3 122 7 125 10 10 103 8 144 -3z
m32 -371 c93 -25 106 -188 19 -233 -25 -13 -102 -20 -174 -17 l-28 1 0 130 0
130 73 0 c39 0 89 -5 110 -11z"/>
<path d="M4646 1359 c-48 -7 -138 -33 -154 -45 -2 -1 2 -28 9 -59 8 -36 17
-54 25 -51 6 2 47 12 90 21 93 20 124 13 154 -37 38 -63 30 -73 -61 -86 -181
-26 -249 -88 -249 -230 0 -98 39 -149 134 -173 57 -14 140 0 179 32 32 24 36
24 47 -6 9 -24 14 -25 85 -25 41 0 75 4 75 9 0 5 -8 26 -17 47 -14 32 -19 80
-23 259 -5 207 -6 222 -28 257 -12 20 -38 46 -57 57 -30 18 -53 24 -130 35
-11 2 -47 -1 -79 -5z m144 -432 c0 -77 -16 -97 -86 -105 -41 -4 -49 -2 -65 19
-21 27 -24 70 -8 100 14 27 64 48 117 49 l42 0 0 -63z"/>
<path d="M7168 1356 c-148 -41 -227 -175 -215 -366 6 -104 30 -164 91 -224 88
-88 233 -100 348 -29 84 52 130 157 129 296 -1 48 -4 100 -7 115 -11 45 -50
115 -81 144 -63 60 -180 88 -265 64z m134 -146 c37 -29 59 -92 60 -174 1 -141
-40 -216 -118 -216 -58 0 -99 35 -119 103 -28 95 -10 234 36 283 29 31 104 34
141 4z"/>
<path d="M7833 1360 c-57 -12 -112 -42 -150 -82 -118 -123 -113 -404 9 -514
51 -46 94 -63 171 -70 119 -11 222 49 274 161 26 56 28 69 27 180 0 131 -14
177 -68 242 -53 63 -174 101 -263 83z m101 -142 c39 -17 69 -89 74 -177 5 -89
-9 -148 -44 -191 -22 -26 -33 -30 -74 -30 -42 0 -52 4 -79 35 -41 47 -54 103
-48 201 5 83 14 113 50 152 23 25 79 30 121 10z"/>
<path d="M5805 1336 c-121 -58 -176 -165 -172 -334 4 -110 30 -175 98 -236 89
-80 225 -97 363 -46 63 24 65 29 37 102 -10 25 -11 26 -48 12 -55 -19 -150
-17 -199 5 -42 19 -77 63 -89 114 l-7 27 191 0 191 0 0 83 c0 147 -41 232
-135 276 -64 30 -163 29 -230 -3z m149 -110 c26 -11 37 -24 50 -62 9 -26 16
-51 16 -56 0 -4 -52 -8 -116 -8 l-116 0 6 33 c8 39 35 78 67 94 31 16 52 16
93 -1z"/>
</g>
</svg>
